<?xml version="1.0" encoding="utf-8"?>
<!-- Generator: Adobe Illustrator 16.0.3, SVG Export Plug-In . SVG Version: 6.00 Build 0)  -->
<!DOCTYPE svg PUBLIC "-//W3C//DTD SVG 1.1//EN" "http://www.w3.org/Graphics/SVG/1.1/DTD/svg11.dtd">
<svg version="1.1" id="Слой_1" xmlns="http://www.w3.org/2000/svg" xmlns:xlink="http://www.w3.org/1999/xlink" x="0px" y="0px"
	 width="150px" height="35.352px" viewBox="-11.357 1.539 150 35.352" enable-background="new -11.357 1.539 150 35.352"
	 xml:space="preserve">
<path fill="#FFFFFF" d="M59.354,11.36h5.335c0.044,0.674,0.086,1.339,0.141,2.15c0.275-0.177,0.494-0.282,0.669-0.436
	c4.606-4.047,11.243-2.669,13.582,3.007c1.74,4.222,1.484,8.439-1.633,12.026c-3.052,3.51-8.262,3.67-11.756,0.583
	c-0.227-0.201-0.467-0.391-0.903-0.753v8.866c-1.69,0-3.243,0.05-4.787-0.049c-0.239-0.016-0.612-0.698-0.62-1.08
	c-0.057-2.528-0.028-5.056-0.028-7.584v-15.17V11.36z M74.806,20.807c0.007-3.195-2.11-5.449-5.118-5.449
	c-2.921,0.002-4.922,2.219-4.919,5.453c0,3.229,2.008,5.451,4.923,5.449C72.706,26.259,74.798,24.027,74.806,20.807"/>
<path fill="#090C45" d="M56.776,22.529H43.174c0.373,3.653,4.53,4.568,8.993,1.817c0.471,0.562,0.954,1.225,1.528,1.797
	c0.549,0.547,1.191,1.001,1.779,1.485c-2.765,3.056-8.08,4.016-12.104,2.387c-3.827-1.548-6.115-5.255-5.947-9.657
	c0.152-4.032,1.946-7.1,5.684-8.698c3.579-1.531,7.161-1.368,10.205,1.321C56.105,15.447,56.702,18.814,56.776,22.529 M43.234,18.6
	h8.25c-0.635-2.083-1.903-3.014-3.978-3.018C45.366,15.578,43.808,16.649,43.234,18.6"/>
<path fill="#FFFFFF" d="M103.161,20.844c-0.017,5.47-4.691,9.98-10.358,9.99c-5.708,0.011-10.532-4.549-10.568-9.994
	c-0.036-5.404,4.824-10.065,10.504-10.076C98.451,10.754,103.176,15.324,103.161,20.844 M92.824,26.26
	c2.875-0.018,5.191-2.452,5.198-5.46c0.006-3.042-2.384-5.469-5.356-5.442c-2.85,0.027-5.268,2.544-5.247,5.459
	C87.439,23.824,89.876,26.275,92.824,26.26"/>
<path fill="#090C45" d="M34.937,30.264h-5.191c0-1.069,0-2.066,0-3.064c0-2.664,0.028-5.326-0.01-7.99
	c-0.036-2.363-1.554-3.886-3.753-3.859c-2.29,0.026-3.922,1.592-3.948,3.877c-0.036,3.213-0.05,6.43,0.01,9.643
	c0.021,1.099-0.245,1.521-1.438,1.516c-3.95-0.021-3.95,0.026-3.95-3.944V13.08v-1.71h5.251c0.068,0.563,0.132,1.094,0.182,1.505
	c1.416-0.64,2.767-1.527,4.247-1.873c4.162-0.975,8.036,1.519,8.441,5.72c0.377,3.914,0.13,7.888,0.157,11.834
	C34.939,29.098,34.937,29.636,34.937,30.264"/>
<path fill="#FFFFFF" d="M138.474,12.843c-0.935,1.631-1.613,2.815-2.28,3.981c-1.302-0.465-2.482-0.991-3.716-1.289
	c-0.871-0.21-1.832-0.217-2.727-0.104c-0.444,0.059-1.148,0.583-1.156,0.91c-0.01,0.454,0.421,1.123,0.849,1.337
	c0.891,0.445,1.901,0.651,2.861,0.961c1.004,0.324,2.04,0.577,3.002,0.998c2.145,0.936,3.497,2.476,3.488,4.962
	c-0.005,2.518-1.174,4.299-3.41,5.36c-3.699,1.752-9.778,0.779-12.95-2.101c0.705-1.133,1.424-2.289,2.064-3.314
	c1.899,0.61,3.672,1.311,5.511,1.719c0.877,0.196,1.94,0.008,2.805-0.313c1.078-0.4,1.128-1.555,0.118-2.121
	c-0.825-0.463-1.784-0.7-2.693-0.998c-1.22-0.404-2.484-0.691-3.669-1.172c-1.799-0.734-3.11-1.93-3.278-4.039
	c-0.181-2.292,0.537-4.182,2.495-5.467c2.061-1.354,4.378-1.72,6.742-1.174C134.468,11.427,136.339,12.162,138.474,12.843"/>
<path fill="#FFFFFF" d="M111.092,4.472v25.874c-1.576,0-3.078,0.005-4.58,0c-0.978-0.004-0.746-0.748-0.747-1.296
	c-0.012-4.728-0.008-9.455-0.008-14.181c0-3.075,0.027-6.15-0.016-9.225c-0.013-0.896,0.27-1.228,1.182-1.188
	C108.287,4.516,109.656,4.472,111.092,4.472"/>
<path fill="#090C45" d="M7.411,30.355V11.376h5.251c0.033,0.421,0.083,0.779,0.083,1.137c0.005,5.513-0.021,11.027,0.026,16.54
	c0.009,1.044-0.318,1.379-1.337,1.32C10.152,30.303,8.865,30.355,7.411,30.355"/>
<rect x="114.862" y="11.38" fill="#FFFFFF" width="5.255" height="18.883"/>
<path fill="#090C45" d="M-7.026,21.807c0.718,0.978,1.212,1.949,1.972,2.622c1.507,1.331,3.262,1.507,5.147,0.7
	c0.43-0.185,1.154-0.148,1.534,0.103c1.183,0.776,2.266,1.705,3.39,2.575c-2.355,2.785-6.796,3.781-10.524,2.416
	c-3.358-1.229-6.141-4.597-6.133-7.514C-10.05,22.396-8.442,22.084-7.026,21.807"/>
<path fill="#090C45" d="M5.143,13.726c-1.361,1.052-2.536,2.004-3.769,2.878c-0.246,0.173-0.763,0.168-1.064,0.037
	c-2.915-1.265-5.387-0.383-6.793,2.401c-0.167,0.33-0.726,0.71-1.049,0.667c-1.399-0.19-2.782-0.53-4.3-0.842
	c0.811-3.65,2.876-6.129,6.238-7.396C-1.673,9.993,1.867,10.842,5.143,13.726"/>
<path fill="#090C45" d="M12.901,5.622c0,1.687-1.159,2.866-2.827,2.875c-1.721,0.01-3.001-1.242-2.977-2.909
	c0.024-1.568,1.338-2.84,2.943-2.848C11.651,2.732,12.901,3.992,12.901,5.622"/>
<path fill="#FFFFFF" d="M120.351,5.669c-0.017,1.675-1.207,2.864-2.857,2.857c-1.66-0.008-2.99-1.354-2.94-2.974
	c0.045-1.55,1.398-2.817,2.991-2.8C119.164,2.77,120.368,4.02,120.351,5.669"/>
<path fill="#090C45" d="M44.454,8.551c0.693-1.376,1.236-2.521,1.847-3.627c0.123-0.222,0.499-0.421,0.763-0.428
	c1.505-0.041,3.013-0.019,4.777-0.019c-0.657,1.358-1.202,2.538-1.803,3.688C49.937,8.357,49.6,8.53,49.369,8.534
	C47.826,8.567,46.281,8.551,44.454,8.551"/>
</svg>
